REM Ripping Tool: trurip

FILE "Jantei Monogatari (1990)(Telenet)(JP).img" BINARY
  TRACK 01 AUDIO
    INDEX 01 00:00:00
  TRACK 02 MODE1/2352
    INDEX 00 00:44:65
    INDEX 01 00:47:65
  TRACK 03 AUDIO
    INDEX 00 06:39:25
    INDEX 01 06:41:25
  TRACK 04 AUDIO
    INDEX 01 07:30:42
  TRACK 05 AUDIO
    INDEX 01 08:13:36

REM DISC HASHES
REM CRC32 : dc9cc9e4
REM MD5   : 9982f92e22005e8ff0d464f2f7328468
REM SHA1  : 42768026e6ec7a5bf0684304ce9e6b330ca445eb

REM Gap Append Method: Prev [crc32]
REM Trk 01: f967bfac
REM Trk 02: 6f9ee4d1
REM Trk 03: 4eacdb68
REM Trk 04: 244a59e0
REM Trk 05: c1ff9ff2

REM Gap Append Method: Prev [md5]
REM Trk 01: 22dc3382cddaf54055e90744d5ff278d
REM Trk 02: d2f5748b968bf704ba9669cc54388281
REM Trk 03: 3e76aca96168ca6d6d7b618f02cb3c41
REM Trk 04: 760cddb16a2a1058a95c72ec254537a9
REM Trk 05: 241f5183625db9e1ed2e93038cc031b6

REM Gap Append Method: Prev [sha1]
REM Trk 01: 8a36302e53c87d656ed4c3fa5524251a6c41121f
REM Trk 02: 803633d4518af74c0aef1358e1769c49396625cd
REM Trk 03: 20b7e7f81375ff3612c5c72b3d12665a716eb42d
REM Trk 04: 3854db941ed2ab0c8c053c8ccada4850c335698a
REM Trk 05: fe750c3e2526da12d80c397a5d66d1d1f13fe936

REM Gap Append Method: None [crc32]
REM Trk 01: bdce14bb
REM Trk 02: 8fe99437
REM Trk 03: 4eacdb68
REM Trk 04: 244a59e0
REM Trk 05: c1ff9ff2
REM Gap 02: 16e86594
REM Gap 03: 7abe247f

REM Gap Append Method: None [md5]
REM Trk 01: 9f7e4482bdc9bbadd25b223cf9fb37a2
REM Trk 02: 0506050cdc84db3215649baa9dbe976e
REM Trk 03: 3e76aca96168ca6d6d7b618f02cb3c41
REM Trk 04: 760cddb16a2a1058a95c72ec254537a9
REM Trk 05: 241f5183625db9e1ed2e93038cc031b6
REM Gap 02: fbd314ec9876f082e173fbb5baf092aa
REM Gap 03: 9df204fbc98bb8965081cb30a89715fc

REM Gap Append Method: None [sha1]
REM Trk 01: 0ccc2f76981e95c9078ae9e0f312f3f70ad93e9e
REM Trk 02: 6d101420a05e95e08a3cac7e4af1aa8a6e24d4b6
REM Trk 03: 20b7e7f81375ff3612c5c72b3d12665a716eb42d
REM Trk 04: 3854db941ed2ab0c8c053c8ccada4850c335698a
REM Trk 05: fe750c3e2526da12d80c397a5d66d1d1f13fe936
REM Gap 02: 08a9af7bae10b281a8edaad6e9ea6cd1646d0ce0
REM Gap 03: cbe29e0bd725ef1194f8c47619dd42078e841de2

REM Gap Append Method: Next [crc32]
REM Trk 01: bdce14bb
REM Trk 02: d41f25d2
REM Trk 03: 458c8129
REM Trk 04: 244a59e0
REM Trk 05: c1ff9ff2

REM Gap Append Method: Next [md5]
REM Trk 01: 9f7e4482bdc9bbadd25b223cf9fb37a2
REM Trk 02: 7d6a34b4a19c92144992d196b294dd76
REM Trk 03: 2a90c439fba00fd84d5b6401209ac947
REM Trk 04: 760cddb16a2a1058a95c72ec254537a9
REM Trk 05: 241f5183625db9e1ed2e93038cc031b6

REM Gap Append Method: Next [sha1]
REM Trk 01: 0ccc2f76981e95c9078ae9e0f312f3f70ad93e9e
REM Trk 02: a922e40609a978331e27dc1dd8fcf07bf2669f2d
REM Trk 03: e5783555ac9d72eaa2b76a3aa6bdb78c51e3151a
REM Trk 04: 3854db941ed2ab0c8c053c8ccada4850c335698a
REM Trk 05: fe750c3e2526da12d80c397a5d66d1d1f13fe936

